<mxfile host="app.diagrams.net" agent="Mozilla/5.0 (Macintosh; Intel Mac OS X 10_15_7) AppleWebKit/537.36 (KHTML, like Gecko) Chrome/132.0.0.0 Safari/537.36" version="26.0.11">
  <diagram name="Page-1" id="nTzetcjNpJMN2InK2jIq">
    <mxGraphModel dx="795" dy="965" grid="0" gridSize="10" guides="1" tooltips="1" connect="1" arrows="1" fold="1" page="0" pageScale="1" pageWidth="1700" pageHeight="1100" math="0" shadow="0">
      <root>
        <mxCell id="0" />
        <mxCell id="1" parent="0" />
        <mxCell id="dt0Bysi8CSAjKdUDs9l--6" style="edgeStyle=none;curved=1;rounded=0;orthogonalLoop=1;jettySize=auto;html=1;entryX=0;entryY=0.5;entryDx=0;entryDy=0;fontSize=12;startSize=8;endSize=8;startArrow=classic;startFill=1;" edge="1" parent="1" source="dt0Bysi8CSAjKdUDs9l--2" target="dt0Bysi8CSAjKdUDs9l--5">
          <mxGeometry relative="1" as="geometry" />
        </mxCell>
        <mxCell id="dt0Bysi8CSAjKdUDs9l--2" value="Client" style="shape=umlActor;verticalLabelPosition=bottom;verticalAlign=top;html=1;outlineConnect=0;" vertex="1" parent="1">
          <mxGeometry y="-48" width="30" height="60" as="geometry" />
        </mxCell>
        <mxCell id="dt0Bysi8CSAjKdUDs9l--21" style="edgeStyle=none;curved=1;rounded=0;orthogonalLoop=1;jettySize=auto;html=1;fontSize=12;startSize=8;endSize=8;endArrow=none;startFill=0;" edge="1" parent="1" source="dt0Bysi8CSAjKdUDs9l--5" target="dt0Bysi8CSAjKdUDs9l--10">
          <mxGeometry relative="1" as="geometry" />
        </mxCell>
        <mxCell id="dt0Bysi8CSAjKdUDs9l--5" value="Serveur" style="rounded=0;whiteSpace=wrap;html=1;" vertex="1" parent="1">
          <mxGeometry x="164" y="-48" width="120" height="60" as="geometry" />
        </mxCell>
        <mxCell id="dt0Bysi8CSAjKdUDs9l--10" value="" style="rounded=0;whiteSpace=wrap;html=1;" vertex="1" parent="1">
          <mxGeometry x="-22" y="105" width="493" height="204" as="geometry" />
        </mxCell>
        <mxCell id="dt0Bysi8CSAjKdUDs9l--11" value="Composant serveur" style="text;strokeColor=none;fillColor=none;html=1;align=center;verticalAlign=middle;whiteSpace=wrap;rounded=0;fontSize=16;" vertex="1" parent="1">
          <mxGeometry y="121" width="164" height="15" as="geometry" />
        </mxCell>
        <mxCell id="dt0Bysi8CSAjKdUDs9l--22" style="edgeStyle=none;curved=1;rounded=0;orthogonalLoop=1;jettySize=auto;html=1;fontSize=12;startSize=8;endSize=8;endArrow=none;startFill=0;" edge="1" parent="1" source="dt0Bysi8CSAjKdUDs9l--12" target="dt0Bysi8CSAjKdUDs9l--16">
          <mxGeometry relative="1" as="geometry" />
        </mxCell>
        <mxCell id="dt0Bysi8CSAjKdUDs9l--12" value="GestionUser" style="rounded=0;whiteSpace=wrap;html=1;" vertex="1" parent="1">
          <mxGeometry x="5" y="181" width="120" height="60" as="geometry" />
        </mxCell>
        <mxCell id="dt0Bysi8CSAjKdUDs9l--23" style="edgeStyle=none;curved=1;rounded=0;orthogonalLoop=1;jettySize=auto;html=1;entryX=0.5;entryY=0;entryDx=0;entryDy=0;fontSize=12;startSize=8;endSize=8;endArrow=none;startFill=0;" edge="1" parent="1" source="dt0Bysi8CSAjKdUDs9l--14" target="dt0Bysi8CSAjKdUDs9l--17">
          <mxGeometry relative="1" as="geometry" />
        </mxCell>
        <mxCell id="dt0Bysi8CSAjKdUDs9l--14" value="GestionRess" style="rounded=0;whiteSpace=wrap;html=1;" vertex="1" parent="1">
          <mxGeometry x="164" y="181" width="120" height="60" as="geometry" />
        </mxCell>
        <mxCell id="dt0Bysi8CSAjKdUDs9l--24" style="edgeStyle=none;curved=1;rounded=0;orthogonalLoop=1;jettySize=auto;html=1;entryX=0.5;entryY=0;entryDx=0;entryDy=0;fontSize=12;startSize=8;endSize=8;endArrow=none;startFill=0;" edge="1" parent="1" source="dt0Bysi8CSAjKdUDs9l--15" target="dt0Bysi8CSAjKdUDs9l--18">
          <mxGeometry relative="1" as="geometry" />
        </mxCell>
        <mxCell id="dt0Bysi8CSAjKdUDs9l--15" value="GestionEmprunt" style="rounded=0;whiteSpace=wrap;html=1;" vertex="1" parent="1">
          <mxGeometry x="323" y="181" width="120" height="60" as="geometry" />
        </mxCell>
        <mxCell id="dt0Bysi8CSAjKdUDs9l--16" value="Utilisateur" style="rounded=0;whiteSpace=wrap;html=1;" vertex="1" parent="1">
          <mxGeometry x="5" y="372" width="120" height="60" as="geometry" />
        </mxCell>
        <mxCell id="dt0Bysi8CSAjKdUDs9l--17" value="Ressources" style="rounded=0;whiteSpace=wrap;html=1;" vertex="1" parent="1">
          <mxGeometry x="164.5" y="372" width="120" height="60" as="geometry" />
        </mxCell>
        <mxCell id="dt0Bysi8CSAjKdUDs9l--18" value="Emprunt" style="rounded=0;whiteSpace=wrap;html=1;" vertex="1" parent="1">
          <mxGeometry x="323" y="372" width="120" height="60" as="geometry" />
        </mxCell>
        <mxCell id="dt0Bysi8CSAjKdUDs9l--19" value="Base de donnÃ©es" style="rounded=0;whiteSpace=wrap;html=1;" vertex="1" parent="1">
          <mxGeometry x="144.5" y="540" width="159" height="60" as="geometry" />
        </mxCell>
      </root>
    </mxGraphModel>
  </diagram>
</mxfile>
